<svg width="96" height="96" viewBox="0 0 96 96" fill="none" xmlns="http://www.w3.org/2000/svg">
  <defs>
    <linearGradient id="g1" x1="12" y1="12" x2="84" y2="84" gradientUnits="userSpaceOnUse">
      <stop stop-color="#C9A76A"/>
      <stop offset="1" stop-color="#F6D7A1"/>
    </linearGradient>
    <linearGradient id="g2" x1="48" y1="8" x2="48" y2="88" gradientUnits="userSpaceOnUse">
      <stop stop-color="#2A6FB0"/>
      <stop offset="1" stop-color="#102B47"/>
    </linearGradient>
  </defs>
  <rect x="8" y="8" width="80" height="80" rx="24" fill="url(#g2)"/>
  <path d="M48 26C38.059 26 30 34.059 30 44C30 53.941 38.059 62 48 62C57.941 62 66 53.941 66 44C66 34.059 57.941 26 48 26Z" fill="url(#g1)"/>
  <path d="M25 67C32.2 61.8 39.6 59.2 48 59.2C56.4 59.2 63.8 61.8 71 67V71H25V67Z" fill="#F7E4C4"/>
  <circle cx="48" cy="43.5" r="8.5" fill="#102B47"/>
</svg>
